# xmcd CD database file
#
# Track frame offsets:
#	150
#	26005
#	42019
#	66318
#	85659
#	106552
#	124293
#	153755
#	171175
#	194680
#	216334
#	233906
#
# Disc length: 3459 seconds
#
# Revision: 0
# Processed by: cddbd v1.5PL3 Copyright (c) Steve Scherf et al.
# Submitted via: CDex 1.51
#
DISCID=9d0d810c
DTITLE=Johnny Jones - Charles Walker - In the house
DYEAR=1999
DGENRE=Blues
TTITLE0=I can't do that
TTITLE1=The drifter
TTITLE2=Slave to love
TTITLE3=Gypsy Woman
TTITLE4=Finger Lickin'
TTITLE5=They all look better in green
TTITLE6=Can I get an amen
TTITLE7=Chicken scratch
TTITLE8=Storming and raining blues
TTITLE9=Strain on my heart
TTITLE10=99,000 Watts of soul power
TTITLE11=Nothing a young girl can do
EXTD=YEAR: 1999
EXTT0=
EXTT1=
EXTT2=
EXTT3=
EXTT4=
EXTT5=
EXTT6=
EXTT7=
EXTT8=
EXTT9=
EXTT10=
EXTT11=
PLAYORDER=
